<mxfile host="app.diagrams.net" modified="2023-06-12T13:07:07.531Z" agent="Mozilla/5.0 (Windows NT 10.0; Win64; x64) AppleWebKit/537.36 (KHTML, like Gecko) Chrome/114.0.0.0 Safari/537.36" version="21.2.3" etag="MkGYdnFJUDmCdcPGvyIV" type="github">
  <diagram name="Page-1" id="RlIsGkfjGuG-TrqyivxY">
    <mxGraphModel>
      <root>
        <mxCell id="0" />
        <mxCell id="1" parent="0" />
      </root>
    </mxGraphModel>
  </diagram>
</mxfile>
